<svg xmlns="http://www.w3.org/2000/svg" width="12" height="21" viewBox="0 0 12 21">
  <metadata><?xpacket begin="﻿" id="W5M0MpCehiHzreSzNTczkc9d"?>
<x:xmpmeta xmlns:x="adobe:ns:meta/" x:xmptk="Adobe XMP Core 5.6-c138 79.159824, 2016/09/14-01:09:01        ">
   <rdf:RDF xmlns:rdf="http://www.w3.org/1999/02/22-rdf-syntax-ns#">
      <rdf:Description rdf:about=""/>
   </rdf:RDF>
</x:xmpmeta>
                                                                                                    
                                                                                                    
                                                                                                    
                                                                                                    
                                                                                                    
                                                                                                    
                                                                                                    
                                                                                                    
                                                                                                    
                                                                                                    
                                                                                                    
                                                                                                    
                                                                                                    
                                                                                                    
                                                                                                    
                                                                                                    
                                                                                                    
                                                                                                    
                                                                                                    
                                                                                                    
                           
<?xpacket end="w"?></metadata>
<defs>
    <style>
      .cls-1 {
        fill-rule: evenodd;
      }
    </style>
  </defs>
  <path id="Contact" class="cls-1" d="M1511.64,2025a2.755,2.755,0,0,1-2.75-2.75v-15.51a2.755,2.755,0,0,1,2.75-2.75h6.48a2.755,2.755,0,0,1,2.75,2.75v15.51a2.755,2.755,0,0,1-2.75,2.75h-6.48Zm-1.13-2.75a1.129,1.129,0,0,0,1.13,1.13h6.48a1.129,1.129,0,0,0,1.13-1.13v-3.72h-8.74v3.72Zm8.74-5.33v-8.08h-8.74v8.08h8.74Zm0-9.69v-0.49a1.129,1.129,0,0,0-1.13-1.13h-6.48a1.129,1.129,0,0,0-1.13,1.13v0.49h8.74Zm-4.37,15.18a1.455,1.455,0,1,1,1.46-1.45A1.46,1.46,0,0,1,1514.88,2022.41Z" transform="translate(-1508.88 -2004)"/>
</svg>
