<svg xmlns="http://www.w3.org/2000/svg" width="25" height="13" viewBox="0 0 25 13">
  <metadata><?xpacket begin="﻿" id="W5M0MpCehiHzreSzNTczkc9d"?>
<x:xmpmeta xmlns:x="adobe:ns:meta/" x:xmptk="Adobe XMP Core 5.6-c138 79.159824, 2016/09/14-01:09:01        ">
   <rdf:RDF xmlns:rdf="http://www.w3.org/1999/02/22-rdf-syntax-ns#">
      <rdf:Description rdf:about=""/>
   </rdf:RDF>
</x:xmpmeta>
                                                                                                    
                                                                                                    
                                                                                                    
                                                                                                    
                                                                                                    
                                                                                                    
                                                                                                    
                                                                                                    
                                                                                                    
                                                                                                    
                                                                                                    
                                                                                                    
                                                                                                    
                                                                                                    
                                                                                                    
                                                                                                    
                                                                                                    
                                                                                                    
                                                                                                    
                                                                                                    
                           
<?xpacket end="w"?></metadata>
<defs>
    <style>
      .cls-1 {
        fill-rule: evenodd;
      }
    </style>
  </defs>
  <path id="JoinUs" class="cls-1" d="M1569.04,2014.5a3.253,3.253,0,1,1,3.39-3.25A3.333,3.333,0,0,1,1569.04,2014.5Zm0-4.88a1.631,1.631,0,1,0,1.7,1.63A1.67,1.67,0,0,0,1569.04,2009.62Zm6.78,11.38h-13.56v-0.81c0-2.85,2.8-4.88,6.78-4.88s6.78,2.03,6.78,4.88V2021Zm-11.69-1.62h9.91c-0.51-1.47-2.37-2.44-4.91-2.44S1564.64,2017.91,1564.13,2019.38Zm16.18,0.48c-0.34-1.05-1.61-1.7-3.39-1.7a6.158,6.158,0,0,1,.43,1.7h2.96Zm-18.89-6.98a1.136,1.136,0,1,1-1.19,1.13A1.153,1.153,0,0,1,1561.42,2012.88Zm-3.48,6.98h2.88a3.538,3.538,0,0,1,.43-1.7C1559.55,2018.16,1558.28,2018.81,1557.94,2019.86Zm18.73-6.98a1.136,1.136,0,1,1-1.19,1.13A1.162,1.162,0,0,1,1576.67,2012.88Zm0,3.41a2.357,2.357,0,1,0-2.46-2.36A2.472,2.472,0,0,0,1576.67,2016.29Zm0-3.5a1.141,1.141,0,1,1-1.19,1.14A1.2,1.2,0,0,1,1576.67,2012.79Zm-15.25,3.5a2.41,2.41,0,0,0,2.45-2.36,2.337,2.337,0,0,0-2.45-2.27A2.319,2.319,0,1,0,1561.42,2016.29Zm0-3.5a1.137,1.137,0,0,1,1.18,1.14,1.2,1.2,0,0,1-1.18,1.22,1.189,1.189,0,0,1-1.19-1.14A1.261,1.261,0,0,1,1561.42,2012.79Zm-0.6,7.07h-2.88c0.34-.97,1.61-1.7,3.31-1.7a5.106,5.106,0,0,1,.67-1.14h-0.42c-2.88-.08-4.91,1.38-4.91,3.41V2021h4.23v-1.14Zm20.76,0.57c0-2.03-2.03-3.49-4.91-3.49h-0.42a5.106,5.106,0,0,1,.67,1.14c1.78,0,3.05.73,3.39,1.7h-2.96v1.14h4.23v-0.49Z" transform="translate(-1556.59 -2008)"/>
</svg>
