<svg xmlns="http://www.w3.org/2000/svg" width="17" height="21" viewBox="0 0 17 21">
  <metadata><?xpacket begin="﻿" id="W5M0MpCehiHzreSzNTczkc9d"?>
<x:xmpmeta xmlns:x="adobe:ns:meta/" x:xmptk="Adobe XMP Core 5.6-c138 79.159824, 2016/09/14-01:09:01        ">
   <rdf:RDF xmlns:rdf="http://www.w3.org/1999/02/22-rdf-syntax-ns#">
      <rdf:Description rdf:about=""/>
   </rdf:RDF>
</x:xmpmeta>
                                                                                                    
                                                                                                    
                                                                                                    
                                                                                                    
                                                                                                    
                                                                                                    
                                                                                                    
                                                                                                    
                                                                                                    
                                                                                                    
                                                                                                    
                                                                                                    
                                                                                                    
                                                                                                    
                                                                                                    
                                                                                                    
                                                                                                    
                                                                                                    
                                                                                                    
                                                                                                    
                           
<?xpacket end="w"?></metadata>
<defs>
    <style>
      .cls-1 {
        fill-rule: evenodd;
      }
    </style>
  </defs>
  <path id="Location_Address" data-name="Location Address" class="cls-1" d="M1464.67,2025c-1.67,0-8.49-9.78-8.49-13.04a8.518,8.518,0,0,1,17,0c0,2.14-2.78,6.44-3.63,7.71-0.37.54-3.62,5.33-4.87,5.33h-0.01Zm0.01-19.09a6.265,6.265,0,0,0-6.46,6.05c0,2.52,5.34,10.22,6.45,10.49,0.9-.25,6.47-7.9,6.47-10.49A6.271,6.271,0,0,0,1464.68,2005.91Zm0,9.54a3.508,3.508,0,1,1,3.74-3.49A3.624,3.624,0,0,1,1464.68,2015.45Zm0-5.09a1.6,1.6,0,1,0,1.7,1.6A1.654,1.654,0,0,0,1464.68,2010.36Z" transform="translate(-1456.19 -2004)"/>
</svg>
