<?xml version="1.0" encoding="utf-8"?>
<!-- Generator: Adobe Illustrator 21.1.0, SVG Export Plug-In . SVG Version: 6.00 Build 0)  -->
<svg version="1.1" id="Layer_1" xmlns="http://www.w3.org/2000/svg" xmlns:xlink="http://www.w3.org/1999/xlink" x="0px" y="0px"
	 viewBox="0 0 32 22.4" style="enable-background:new 0 0 32 22.4;" xml:space="preserve">
<style type="text/css">
	.st0{fill:#F14E4B;}
</style>
<path id="Menu_Open" class="st0" d="M1.6,3.2h28.8c0.9,0,1.6-0.7,1.6-1.6C32,0.7,31.3,0,30.4,0c0,0,0,0,0,0H1.6C0.7,0,0,0.7,0,1.6
	C0,2.5,0.7,3.2,1.6,3.2L1.6,3.2z M30.4,9.6H1.6C0.7,9.6,0,10.3,0,11.2c0,0.9,0.7,1.6,1.6,1.6h28.8c0.9,0,1.6-0.8,1.6-1.6
	C31.9,10.3,31.3,9.6,30.4,9.6L30.4,9.6z M30.4,19.2H1.6c-0.9,0-1.6,0.7-1.6,1.6c0,0.9,0.7,1.6,1.6,1.6h28.8c0.9,0,1.6-0.7,1.6-1.6
	S31.4,19.2,30.4,19.2C30.5,19.2,30.4,19.2,30.4,19.2L30.4,19.2z"/>
</svg>
