<?xml version="1.0" encoding="utf-8"?>
<!-- Generator: Adobe Illustrator 21.1.0, SVG Export Plug-In . SVG Version: 6.00 Build 0)  -->
<svg version="1.1" id="Layer_1" xmlns="http://www.w3.org/2000/svg" xmlns:xlink="http://www.w3.org/1999/xlink" x="0px" y="0px"
	 viewBox="0 0 14 14" style="enable-background:new 0 0 14 14;" xml:space="preserve">
<style type="text/css">
	.st0{fill:#F14E4B;}
</style>
<path id="Search" class="st0" d="M13.7,12.2l-2.9-2.9c2-2.6,1.5-6.4-1.1-8.4C7-1.1,3.3-0.6,1.2,2.1c-2,2.6-1.5,6.4,1.1,8.4
	c1,0.8,2.3,1.2,3.6,1.2c1.2,0,2.3-0.3,3.3-1l3,2.9c0.2,0.2,0.4,0.3,0.7,0.3c0.3,0,0.5-0.1,0.7-0.3c0.2-0.2,0.3-0.4,0.3-0.7
	C14,12.7,13.9,12.4,13.7,12.2z M10.3,5.9c0,2.4-1.9,4.4-4.3,4.4c-2.4,0-4.4-1.9-4.4-4.3c0-2.4,1.9-4.4,4.3-4.4c0,0,0.1,0,0.1,0
	C8.3,1.6,10.2,3.5,10.3,5.9z"/>
</svg>
