<svg id="Layer_1" data-name="Layer 1" xmlns="http://www.w3.org/2000/svg" viewBox="0 0 199 33"><defs><style>.cls-1{fill:#fff;}</style></defs><title>journey-white</title><path class="cls-1" d="M63.82,63.31c.08.58.31,1.77-1.72,6.87a63.66,63.66,0,0,1-4.51,9,17,17,0,0,1-7.09-14c0-9.21,7-16.68,15.57-16.69-.6.66-2.46,2.73-3,3.53-.67.95-2.45,3.5-2.45,4.59s-.2,1.4,1.63,3.5a6.3,6.3,0,0,1,1.59,3.19m17.83,1.87c0-8.33-5.7-15.24-13.15-16.49A16.9,16.9,0,0,0,67,51c-1.14,2.21-1.62,4.15-.94,5.08,1.73,2.42,3.8,1.92,5.16,5.87.8,2.32.45,5.58.38,7.62-.05,1.66-.92,9-1.25,11.62,6.51-2,11.27-8.43,11.27-16m16.4,16V53.5h4.42V49H88.71V53.5h4.42V81.22ZM109.31,62.6V49h-4.92V81.22h4.92V67.06H114V81.22H119V49H114V62.6ZM121.91,49V81.22h11V76.76h-6.12v-9.7h5.8V62.6h-5.8V53.5h6V49Zm27.73,0h-4.92V74.88a1.64,1.64,0,0,1-1.89,1.89h-2.16v4.46h3c4,0,6-2,6-6ZM161.1,81.5c4,0,6-2,6-6V54.74c0-4-2-6-6-6h-2.62c-4,0-6,2-6,6V75.52c0,4,2,6,6,6h2.62m-.78-28.41c1.24,0,1.84.6,1.84,1.88V75.29c0,1.29-.6,1.88-1.84,1.88h-1a1.64,1.64,0,0,1-1.89-1.88V55a1.64,1.64,0,0,1,1.89-1.88h1m23.92-4h-4.92V75.29c0,1.29-.6,1.89-1.84,1.89h-.78a1.64,1.64,0,0,1-1.89-1.89V49h-4.92V75.52c0,4,2,6,6,6h2.39c4,0,6-2,6-6Zm17,21.24c0-2.44-.83-3.68-2.85-4.23,1.79-.74,2.81-2.11,2.81-5V55c0-4-2-6-6-6h-8.1V81.22h4.92V68.3h2.21c1.43,0,2.07.64,2.07,2.07V81.22h4.92V70.28m-6.81-16.87a1.61,1.61,0,0,1,1.84,1.84v6.8c0,1.33-.64,2-2,2h-2.21V53.41h2.39m20,15.63-4.6-20H204.1V81.22h4.42l0-21.7,5,21.7h5.34V49h-4.42Zm7.31-20V81.22h11V76.76h-6.12v-9.7h5.8V62.6h-5.8V53.5h6V49Zm20.1,13.56L239.06,49H234l5.29,21.15v11h4.92V70L249.5,49h-4.74Z" transform="translate(-50.5 -48.5)"/></svg>