<?xml version="1.0" encoding="utf-8"?>
<!-- Generator: Adobe Illustrator 21.1.0, SVG Export Plug-In . SVG Version: 6.00 Build 0)  -->
<svg version="1.1" id="Layer_1" xmlns="http://www.w3.org/2000/svg" xmlns:xlink="http://www.w3.org/1999/xlink" x="0px" y="0px"
	 viewBox="0 0 31.1 33" style="enable-background:new 0 0 31.1 33;" xml:space="preserve">
<style type="text/css">
	.st0{fill:#FFFFFF;}
</style>
<path id="Journey_Logo" class="st0" d="M13.3,14.8c0.1,0.6,0.3,1.8-1.7,6.9c-1.3,3.1-2.8,6.1-4.5,9c-4.5-3.2-7.2-8.4-7.1-14
	C0,7.5,7,0,15.6,0c-0.6,0.7-2.5,2.7-3,3.5c-0.7,0.9-2.5,3.5-2.5,4.6s-0.2,1.4,1.6,3.5C12.6,12.5,13.1,13.6,13.3,14.8 M31.1,16.7
	c0-8.3-5.7-15.2-13.2-16.5c-0.6,0.7-1,1.5-1.5,2.3c-1.2,2.2-1.6,4.2-0.9,5.1c1.7,2.4,3.8,1.9,5.2,5.9c0.8,2.3,0.5,5.6,0.4,7.6
	c0,1.7-0.9,9-1.2,11.6C26.4,30.7,31.1,24.3,31.1,16.7"/>
</svg>
